# xmcd
#
# Track frame offsets:
# 150
# 4079
# 21562
# 34803
# 35916
# 52280
# 68908
# 71278
# 85212
# 95504
# 96624
# 111509
# 124817
# 125676
# 143644
# 154791
#
# Disc length: 2114 seconds
#
#
# Revision: 0
# Processed by: cddbd v1.4PL0 Copyright (c) Steve Scherf et al.
# Submitted via: FreeRIP 2.00 
#
DISCID=f0084010
DTITLE=Various Artist - Dodge Ram Live At Billy Bob's Texas
DYEAR=2001
DGENRE=Country
TTITLE0=Intro
TTITLE1=Are The Good Times Really Over - Merle Haggard
TTITLE2=Lady Lay Down - John Conlee
TTITLE3=Intro
TTITLE4=Joe Knows How To Live - Eddy Raven
TTITLE5=Take Me Out To The Dancehall - Pat Green
TTITLE6=Intro
TTITLE7=Rose Garden - Lynn Anderson
TTITLE8=Roll On Big Momma - Moe and Joe
TTITLE9=Intro
TTITLE10=Party Time - TG Sheppard
TTITLE11=Let's Stop Talking About It - Janie Fricke
TTITLE12=Intro
TTITLE13=Lookin' For Love - Johnny Lee
TTITLE14="Ghost" Riders In The Sky - Roy Clark
TTITLE15=Close
EXTD=Recorded Live at Billy Bob's in Fort Worth, Texas for Dodge.
EXTT0=
EXTT1=
EXTT2=
EXTT3=
EXTT4=
EXTT5=
EXTT6=
EXTT7=
EXTT8=
EXTT9=
EXTT10=
EXTT11=
EXTT12=
EXTT13=
EXTT14=
EXTT15=
PLAYORDER=
